<?xml version="1.0" encoding="iso-8859-1"?>
<!-- Generator: Adobe Illustrator 19.0.0, SVG Export Plug-In . SVG Version: 6.00 Build 0)  -->
<svg version="1.1" id="Layer_1" xmlns="http://www.w3.org/2000/svg" xmlns:xlink="http://www.w3.org/1999/xlink" x="0px" y="0px"
	 viewBox="0 0 511.999 511.999" style="enable-background:new 0 0 511.999 511.999;" xml:space="preserve">
<circle style="fill:#4ACFD9;" cx="219.739" cy="219.794" r="211.693"/>
<path style="fill:#0295AA;" d="M70.623,69.548c-0.189,0.188-0.382,0.368-0.57,0.556c-82.672,82.672-82.672,216.708,0,299.38
	s216.708,82.672,299.38,0c0.188-0.188,0.368-0.381,0.556-0.57L70.623,69.548z"/>
<rect x="429.039" y="411.826" transform="matrix(-0.7071 0.7071 -0.7071 -0.7071 1098.4185 455.0759)" style="fill:#9BAAAB;" width="51.843" height="86.405"/>
<rect x="432.722" y="420.699" transform="matrix(-0.7071 0.7071 -0.7071 -0.7071 1089.5355 476.5017)" style="fill:#687F82;" width="26.718" height="86.405"/>
<circle style="fill:#E6EAEA;" cx="219.739" cy="219.794" r="149.546"/>
<path style="fill:#CDD4D5;" d="M114.566,113.491c-0.189,0.187-0.382,0.368-0.57,0.556c-58.403,58.403-58.403,153.091,0,211.493
	c58.403,58.401,153.091,58.403,211.493,0c0.188-0.188,0.369-0.381,0.556-0.57L114.566,113.491z"/>
<g>
	<path style="fill:#FFFFFF;" d="M399.033,227.894c-4.475,0-8.101-3.626-8.101-8.101c0-22.935-4.417-45.143-13.13-66.003
		c-1.724-4.128,0.225-8.873,4.353-10.598c4.131-1.725,8.873,0.225,10.597,4.353c9.542,22.849,14.381,47.157,14.381,72.248
		C407.133,224.269,403.508,227.894,399.033,227.894z"/>
	<path style="fill:#FFFFFF;" d="M366.073,124.211c-2.533,0-5.026-1.184-6.607-3.403c-5.556-7.805-11.838-15.228-18.674-22.064
		c-32.333-32.334-75.323-50.141-121.05-50.141c-4.474,0-8.101-3.626-8.101-8.101s3.627-8.101,8.101-8.101
		c50.055,0,97.112,19.492,132.507,54.885c7.471,7.472,14.34,15.589,20.417,24.124c2.593,3.645,1.742,8.703-1.902,11.298
		C369.339,123.723,367.697,124.211,366.073,124.211z"/>
</g>
<rect x="119.347" y="163.63" style="fill:#F0353D;" width="38.882" height="108.007"/>
<rect x="197.112" y="176.591" style="fill:#687F82;" width="38.882" height="95.046"/>
<rect x="274.877" y="137.709" style="fill:#FF8C29;" width="38.882" height="133.928"/>
<path d="M331.217,108.319c-61.467-61.466-161.481-61.466-222.949,0c-29.776,29.775-46.175,69.365-46.175,111.475
	s16.399,81.7,46.174,111.475c30.733,30.733,71.104,46.101,111.474,46.101c40.371,0,80.741-15.367,111.475-46.101
	C392.683,269.801,392.683,169.787,331.217,108.319z M319.76,319.812c-55.149,55.153-144.887,55.15-200.036,0
	c-26.717-26.714-41.43-62.236-41.43-100.018s14.714-73.303,41.429-100.019C147.298,92.2,183.52,78.413,219.742,78.413
	c36.222,0,72.443,13.788,100.019,41.363C374.911,174.926,374.911,264.662,319.76,319.812z"/>
<path d="M509.576,461.512l-61.097-61.097c-3.165-3.162-8.293-3.162-11.457,0l-12.601,12.601l-43.647-43.647
	c37.947-40.782,58.762-93.576,58.762-149.575c0-58.708-22.863-113.904-64.376-155.418S278.451,0,219.742,0
	S105.838,22.863,64.324,64.376c-85.697,85.698-85.697,225.138,0,310.836c41.514,41.512,96.708,64.375,155.418,64.375
	c56,0,108.792-20.815,149.574-58.762l43.647,43.647l-12.601,12.601c-3.164,3.165-3.164,8.293,0,11.456l61.097,61.097
	c1.582,1.581,3.656,2.372,5.729,2.372c2.073,0,4.146-0.791,5.729-2.372l36.659-36.659
	C512.738,469.805,512.738,464.676,509.576,461.512z M75.779,363.755c-79.381-79.381-79.381-208.542,0-287.922
	c38.454-38.455,89.581-59.632,143.962-59.632s105.508,21.177,143.961,59.632c38.455,38.454,59.632,89.581,59.632,143.961
	s-21.177,105.508-59.632,143.961c-38.453,38.455-89.58,59.632-143.961,59.632S114.233,402.21,75.779,363.755z M467.189,492.444
	l-49.642-49.642l12.591-12.591c0.003-0.003,0.008-0.006,0.011-0.01s0.007-0.008,0.01-0.011l12.591-12.591l49.642,49.642
	L467.189,492.444z"/>
<path d="M331.036,263.537h-9.181V137.709c0-4.475-3.626-8.101-8.101-8.101h-38.882c-4.475,0-8.101,3.626-8.101,8.101v125.828
	h-22.681v-86.946c0-4.475-3.627-8.101-8.101-8.101h-38.882c-4.474,0-8.101,3.626-8.101,8.101v86.946h-22.681V163.63
	c0-4.475-3.627-8.101-8.101-8.101h-38.882c-4.474,0-8.101,3.626-8.101,8.101v99.906h-9.181c-4.474,0-8.101,3.626-8.101,8.1
	s3.627,8.101,8.101,8.101h17.281h38.882h38.882h38.882h38.882h38.882h17.281c4.475,0,8.101-3.626,8.101-8.101
	S335.511,263.537,331.036,263.537z M305.655,145.809v117.727h-22.681V145.809H305.655z M227.89,184.692v78.845h-22.681v-78.845
	H227.89z M150.125,171.731v91.806h-22.681v-91.806H150.125z"/>
<g>
</g>
<g>
</g>
<g>
</g>
<g>
</g>
<g>
</g>
<g>
</g>
<g>
</g>
<g>
</g>
<g>
</g>
<g>
</g>
<g>
</g>
<g>
</g>
<g>
</g>
<g>
</g>
<g>
</g>
</svg>
