<svg xmlns="http://www.w3.org/2000/svg" xmlns:xlink="http://www.w3.org/1999/xlink" version="1.1" width="256" height="256" viewBox="0 0 256 256" xml:space="preserve">
<desc>Created with Fabric.js 1.7.22</desc>
<defs>
</defs>
<g transform="translate(128 128) scale(0.72 0.72)" style="">
	<g style="stroke: none; stroke-width: 0; stroke-dasharray: none; stroke-linecap: butt; stroke-linejoin: miter; stroke-miterlimit: 10; fill: none; fill-rule: nonzero; opacity: 1;" transform="translate(-175.05 -175.05000000000004) scale(3.89 3.89)" >
	<path d="M 83.974 85.467 H 6.026 C 3.25 85.467 1 83.217 1 80.441 v -0.909 h 88 v 0.909 C 89 83.217 86.75 85.467 83.974 85.467 z" style="stroke: none; stroke-width: 1; stroke-dasharray: none; stroke-linecap: butt; stroke-linejoin: miter; stroke-miterlimit: 10; fill: rgb(238,240,245); fill-rule: nonzero; opacity: 1;" transform=" matrix(1 0 0 1 0 0) " stroke-linecap="round" />
	<path d="M 79.004 28.111 c 2.936 0 5.317 2.381 5.317 5.317 v 46.104 H 5.679 V 33.428 c 0 -2.936 2.381 -5.317 5.317 -5.317 H 79.004 z" style="stroke: none; stroke-width: 1; stroke-dasharray: none; stroke-linecap: butt; stroke-linejoin: miter; stroke-miterlimit: 10; fill: rgb(238,240,245); fill-rule: nonzero; opacity: 1;" transform=" matrix(1 0 0 1 0 0) " stroke-linecap="round" />
	<path d="M 78.888 73.532 V 35.754 c 0 -1.019 -0.826 -1.846 -1.846 -1.846 H 52.068 H 37.932 H 12.958 c -1.02 0 -1.846 0.826 -1.846 1.846 v 37.778 v 6 h 67.776 V 73.532 z" style="stroke: none; stroke-width: 1; stroke-dasharray: none; stroke-linecap: butt; stroke-linejoin: miter; stroke-miterlimit: 10; fill: rgb(179,218,254); fill-rule: nonzero; opacity: 1;" transform=" matrix(1 0 0 1 0 0) " stroke-linecap="round" />
	<rect x="40.16" y="79.53" rx="0" ry="0" width="9.67" height="5.93" style="stroke: none; stroke-width: 1; stroke-dasharray: none; stroke-linecap: butt; stroke-linejoin: miter; stroke-miterlimit: 10; fill: rgb(215,216,219); fill-rule: nonzero; opacity: 1;" transform=" matrix(1 0 0 1 0 0) "/>
	<path d="M 43.962 63.287 l -10.403 8.706 v -8.706 h -3.424 c -1.828 0 -3.309 -1.482 -3.309 -3.309 V 40.439 c 0 -1.828 1.482 -3.309 3.309 -3.309 H 59.57 c 1.828 0 3.309 1.482 3.309 3.309 v 19.539 c 0 1.828 -1.482 3.309 -3.309 3.309 H 43.962" style="stroke: none; stroke-width: 1; stroke-dasharray: none; stroke-linecap: butt; stroke-linejoin: miter; stroke-miterlimit: 10; fill: rgb(249,208,112); fill-rule: nonzero; opacity: 1;" transform=" matrix(1 0 0 1 0 0) " stroke-linecap="round" />
	<path d="M 85.321 80.571 H 4.679 V 33.467 c 0 -3.483 2.834 -6.317 6.317 -6.317 l 10.263 -0.04 c 0.001 0 0.003 0 0.004 0 c 0.551 0 0.998 0.445 1 0.996 c 0.002 0.552 -0.444 1.002 -0.996 1.004 L 11 29.15 c -2.385 0 -4.321 1.937 -4.321 4.317 v 45.104 h 76.643 V 33.467 c 0 -2.38 -1.937 -4.317 -4.317 -4.317 H 68.952 c -0.553 0 -1 -0.448 -1 -1 s 0.447 -1 1 -1 h 10.052 c 3.483 0 6.317 2.834 6.317 6.317 V 80.571 z" style="stroke: none; stroke-width: 1; stroke-dasharray: none; stroke-linecap: butt; stroke-linejoin: miter; stroke-miterlimit: 10; fill: rgb(0,0,0); fill-rule: nonzero; opacity: 1;" transform=" matrix(1 0 0 1 0 0) " stroke-linecap="round" />
	<path d="M 83.974 86.507 H 6.026 C 2.703 86.507 0 83.804 0 80.48 v -0.909 c 0 -0.553 0.448 -1 1 -1 h 88 c 0.553 0 1 0.447 1 1 v 0.909 C 90 83.804 87.297 86.507 83.974 86.507 z M 2.001 80.571 c 0.048 2.179 1.835 3.936 4.025 3.936 h 77.948 c 2.189 0 3.977 -1.757 4.025 -3.936 H 2.001 z" style="stroke: none; stroke-width: 1; stroke-dasharray: none; stroke-linecap: butt; stroke-linejoin: miter; stroke-miterlimit: 10; fill: rgb(0,0,0); fill-rule: nonzero; opacity: 1;" transform=" matrix(1 0 0 1 0 0) " stroke-linecap="round" />
	<path d="M 50.836 86.507 H 39.164 v -7.936 h 11.672 V 86.507 z M 41.164 84.507 h 7.672 v -3.936 h -7.672 V 84.507 z" style="stroke: none; stroke-width: 1; stroke-dasharray: none; stroke-linecap: butt; stroke-linejoin: miter; stroke-miterlimit: 10; fill: rgb(0,0,0); fill-rule: nonzero; opacity: 1;" transform=" matrix(1 0 0 1 0 0) " stroke-linecap="round" />
	<path d="M 78.888 74.571 c -0.553 0 -1 -0.447 -1 -1 V 35.793 c 0 -0.467 -0.379 -0.846 -0.846 -0.846 h -8.09 c -0.553 0 -1 -0.448 -1 -1 s 0.447 -1 1 -1 h 8.09 c 1.569 0 2.846 1.277 2.846 2.846 v 37.778 C 79.888 74.124 79.44 74.571 78.888 74.571 z" style="stroke: none; stroke-width: 1; stroke-dasharray: none; stroke-linecap: butt; stroke-linejoin: miter; stroke-miterlimit: 10; fill: rgb(0,0,0); fill-rule: nonzero; opacity: 1;" transform=" matrix(1 0 0 1 0 0) " stroke-linecap="round" />
	<path d="M 11.112 74.571 c -0.552 0 -1 -0.447 -1 -1 V 35.793 c 0 -1.569 1.277 -2.846 2.846 -2.846 h 8.305 c 0.552 0 1 0.448 1 1 s -0.448 1 -1 1 h -8.305 c -0.467 0 -0.846 0.379 -0.846 0.846 v 37.778 C 12.112 74.124 11.664 74.571 11.112 74.571 z" style="stroke: none; stroke-width: 1; stroke-dasharray: none; stroke-linecap: butt; stroke-linejoin: miter; stroke-miterlimit: 10; fill: rgb(0,0,0); fill-rule: nonzero; opacity: 1;" transform=" matrix(1 0 0 1 0 0) " stroke-linecap="round" />
	<path d="M 45.89 30.651 l 10.403 8.706 v -8.706 h 3.424 c 1.828 0 3.309 -1.482 3.309 -3.309 V 7.803 c 0 -1.828 -1.482 -3.309 -3.309 -3.309 H 30.282 c -1.828 0 -3.309 1.482 -3.309 3.309 v 19.539 c 0 1.828 1.482 3.309 3.309 3.309 H 45.89" style="stroke: none; stroke-width: 1; stroke-dasharray: none; stroke-linecap: butt; stroke-linejoin: miter; stroke-miterlimit: 10; fill: rgb(240,114,129); fill-rule: nonzero; opacity: 1;" transform=" matrix(1 0 0 1 0 0) " stroke-linecap="round" />
	<path d="M 56.294 40.357 c -0.23 0 -0.458 -0.08 -0.642 -0.233 l -10.125 -8.473 H 30.282 c -2.376 0 -4.31 -1.933 -4.31 -4.31 V 7.803 c 0 -2.376 1.933 -4.309 4.31 -4.309 h 29.436 c 2.376 0 4.31 1.933 4.31 4.309 v 19.539 c 0 2.376 -1.934 4.31 -4.31 4.31 h -2.424 v 7.706 c 0 0.388 -0.225 0.742 -0.577 0.906 C 56.582 40.326 56.438 40.357 56.294 40.357 z M 30.282 5.494 c -1.273 0 -2.31 1.036 -2.31 2.309 v 19.539 c 0 1.273 1.036 2.31 2.31 2.31 h 15.608 c 0.234 0 0.462 0.083 0.642 0.233 l 8.762 7.333 v -6.565 c 0 -0.552 0.447 -1 1 -1 h 3.424 c 1.273 0 2.31 -1.036 2.31 -2.31 V 7.803 c 0 -1.273 -1.036 -2.309 -2.31 -2.309 H 30.282 z" style="stroke: none; stroke-width: 1; stroke-dasharray: none; stroke-linecap: butt; stroke-linejoin: miter; stroke-miterlimit: 10; fill: rgb(0,0,0); fill-rule: nonzero; opacity: 1;" transform=" matrix(1 0 0 1 0 0) " stroke-linecap="round" />
	<path d="M 59.718 64.287 H 44.109 c -0.552 0 -1 -0.447 -1 -1 s 0.448 -1 1 -1 h 15.608 c 1.273 0 2.31 -1.036 2.31 -2.31 V 40.439 c 0 -0.782 -0.391 -1.504 -1.046 -1.933 c -0.462 -0.302 -0.591 -0.922 -0.289 -1.384 c 0.304 -0.461 0.923 -0.592 1.385 -0.289 c 1.221 0.799 1.95 2.147 1.95 3.606 v 19.539 C 64.027 62.354 62.094 64.287 59.718 64.287 z" style="stroke: none; stroke-width: 1; stroke-dasharray: none; stroke-linecap: butt; stroke-linejoin: miter; stroke-miterlimit: 10; fill: rgb(0,0,0); fill-rule: nonzero; opacity: 1;" transform=" matrix(1 0 0 1 0 0) " stroke-linecap="round" />
	<path d="M 33.707 72.993 c -0.144 0 -0.288 -0.031 -0.423 -0.094 c -0.352 -0.165 -0.577 -0.518 -0.577 -0.906 v -7.706 h -2.424 c -2.376 0 -4.31 -1.934 -4.31 -4.31 V 40.439 c 0 -2.376 1.933 -4.309 4.31 -4.309 h 17.157 c 0.553 0 1 0.448 1 1 s -0.447 1 -1 1 H 30.282 c -1.273 0 -2.31 1.036 -2.31 2.309 v 19.539 c 0 1.273 1.036 2.31 2.31 2.31 h 3.424 c 0.552 0 1 0.447 1 1 v 6.565 l 8.761 -7.332 c 0.423 -0.355 1.053 -0.299 1.409 0.125 c 0.354 0.424 0.298 1.054 -0.125 1.408 L 34.348 72.76 C 34.165 72.914 33.937 72.993 33.707 72.993 z" style="stroke: none; stroke-width: 1; stroke-dasharray: none; stroke-linecap: butt; stroke-linejoin: miter; stroke-miterlimit: 10; fill: rgb(0,0,0); fill-rule: nonzero; opacity: 1;" transform=" matrix(1 0 0 1 0 0) " stroke-linecap="round" />
	<path d="M 49.492 59.408 c -0.553 0 -1 -0.447 -1 -1 V 47.021 c 0 -1.926 -1.566 -3.493 -3.492 -3.493 s -3.493 1.567 -3.493 3.493 v 11.387 c 0 0.553 -0.448 1 -1 1 s -1 -0.447 -1 -1 V 47.021 c 0 -3.029 2.464 -5.493 5.493 -5.493 c 3.028 0 5.492 2.464 5.492 5.493 v 11.387 C 50.492 58.961 50.045 59.408 49.492 59.408 z" style="stroke: none; stroke-width: 1; stroke-dasharray: none; stroke-linecap: butt; stroke-linejoin: miter; stroke-miterlimit: 10; fill: rgb(0,0,0); fill-rule: nonzero; opacity: 1;" transform=" matrix(1 0 0 1 0 0) " stroke-linecap="round" />
	<path d="M 49.492 52.531 h -8.985 c -0.552 0 -1 -0.447 -1 -1 s 0.448 -1 1 -1 h 8.985 c 0.553 0 1 0.447 1 1 S 50.045 52.531 49.492 52.531 z" style="stroke: none; stroke-width: 1; stroke-dasharray: none; stroke-linecap: butt; stroke-linejoin: miter; stroke-miterlimit: 10; fill: rgb(0,0,0); fill-rule: nonzero; opacity: 1;" transform=" matrix(1 0 0 1 0 0) " stroke-linecap="round" />
	<path d="M 49.345 19.796 c -0.553 0 -1 -0.448 -1 -1 v -4.522 c 0 -1.926 -1.566 -3.493 -3.493 -3.493 c -1.926 0 -3.492 1.567 -3.492 3.493 v 4.509 c 0 0.552 -0.448 1 -1 1 s -1 -0.448 -1 -1 v -4.509 c 0 -3.029 2.464 -5.493 5.492 -5.493 c 3.029 0 5.493 2.464 5.493 5.493 v 4.522 C 50.345 19.349 49.897 19.796 49.345 19.796 z" style="stroke: none; stroke-width: 1; stroke-dasharray: none; stroke-linecap: butt; stroke-linejoin: miter; stroke-miterlimit: 10; fill: rgb(0,0,0); fill-rule: nonzero; opacity: 1;" transform=" matrix(1 0 0 1 0 0) " stroke-linecap="round" />
	<path d="M 44.852 26.66 c -3.028 0 -5.492 -2.464 -5.492 -5.492 v -4.51 c 0 -0.552 0.448 -1 1 -1 s 1 0.448 1 1 v 4.51 c 0 1.926 1.566 3.492 3.492 3.492 c 1.926 0 3.493 -1.566 3.493 -3.492 v -4.523 c 0 -0.552 0.447 -1 1 -1 s 1 0.448 1 1 v 4.523 C 50.345 24.196 47.881 26.66 44.852 26.66 z" style="stroke: none; stroke-width: 1; stroke-dasharray: none; stroke-linecap: butt; stroke-linejoin: miter; stroke-miterlimit: 10; fill: rgb(0,0,0); fill-rule: nonzero; opacity: 1;" transform=" matrix(1 0 0 1 0 0) " stroke-linecap="round" />
	<path d="M 49.641 26.941 c -0.256 0 -0.512 -0.098 -0.707 -0.293 l -4.789 -4.788 c -0.391 -0.391 -0.391 -1.023 0 -1.414 s 1.023 -0.391 1.414 0 l 4.789 4.788 c 0.391 0.391 0.391 1.023 0 1.414 C 50.152 26.843 49.896 26.941 49.641 26.941 z" style="stroke: none; stroke-width: 1; stroke-dasharray: none; stroke-linecap: butt; stroke-linejoin: miter; stroke-miterlimit: 10; fill: rgb(0,0,0); fill-rule: nonzero; opacity: 1;" transform=" matrix(1 0 0 1 0 0) " stroke-linecap="round" />
</g>
</g>
</svg>